<?xml version="1.0" encoding="UTF-8"?>
<svg id="Layer_2" data-name="Layer 2" xmlns="http://www.w3.org/2000/svg" viewBox="0 0 456.13 42.45">
  <defs>
    <style>
      .cls-1 {
        fill: #515151;
      }

      .cls-2 {
        fill: #7d848d;
      }
    </style>
  </defs>
  <g id="Layer_1-2" data-name="Layer 1">
    <g>
      <path class="cls-1" d="M0,.82V9.74H30.83V.82H0ZM0,41.64H11.54v-14H30.83v-8.92H0v22.92Z"/>
      <path class="cls-1" d="M95.44,41.23c3.09,.82,6.3,1.22,9.62,1.22,3.85,0,7.17-.58,9.91-1.75,2.68-1.17,4.72-2.8,6.12-4.78,1.34-1.98,2.04-4.2,2.04-6.65,0-2.8-.76-5.07-2.27-6.71-1.52-1.63-3.26-2.86-5.3-3.62-2.04-.76-4.6-1.46-7.69-2.16-2.8-.58-4.78-1.11-6-1.69-1.28-.52-1.87-1.34-1.87-2.45,0-1.05,.52-1.92,1.57-2.62,1.05-.7,2.68-1.05,5.01-1.05,3.61,0,7.4,1.05,11.31,3.15l3.56-8.57c-1.98-1.17-4.31-2.04-6.88-2.62-2.62-.58-5.25-.93-7.93-.93-3.96,0-7.29,.58-9.97,1.75-2.68,1.17-4.72,2.8-6.06,4.78-1.4,1.98-2.04,4.26-2.04,6.71,0,2.86,.7,5.13,2.21,6.76,1.46,1.69,3.21,2.92,5.3,3.67,2.04,.76,4.6,1.46,7.69,2.1,2.8,.64,4.78,1.22,6.06,1.81,1.28,.58,1.92,1.4,1.92,2.57,0,2.22-2.21,3.32-6.64,3.32-2.33,0-4.72-.35-7.11-1.11-2.45-.7-4.55-1.69-6.35-2.92l-3.79,8.51c1.92,1.4,4.43,2.45,7.58,3.27h0Z"/>
      <polygon class="cls-1" points="175.32 .82 163.78 .82 163.78 16.15 148.04 16.15 148.04 .82 136.5 .82 136.5 41.64 148.04 41.64 148.04 25.72 163.78 25.72 163.78 41.64 175.32 41.64 175.32 .82"/>
      <rect class="cls-1" x="191.61" y=".82" width="11.54" height="40.82"/>
      <path class="cls-1" d="M245.69,31.43c-1.69,.99-3.56,1.46-5.6,1.46s-3.96-.47-5.6-1.46c-1.69-.93-3.03-2.33-3.96-4.08-.99-1.75-1.46-3.79-1.46-6.12s.47-4.32,1.46-6.06c.93-1.75,2.27-3.15,3.96-4.14,1.63-.93,3.5-1.46,5.6-1.46s3.91,.52,5.6,1.46c1.63,.99,2.97,2.39,3.96,4.14,.93,1.75,1.46,3.79,1.46,6.06s-.52,4.37-1.46,6.12c-.99,1.75-2.33,3.15-3.96,4.08h0Zm-17.25,8.28c3.44,1.87,7.34,2.74,11.66,2.74s8.16-.87,11.6-2.74c3.44-1.81,6.12-4.32,8.1-7.58,1.98-3.21,2.97-6.82,2.97-10.9s-.99-7.64-2.97-10.9c-1.98-3.21-4.66-5.71-8.1-7.58-3.44-1.81-7.29-2.74-11.6-2.74s-8.22,.93-11.66,2.74c-3.44,1.87-6.12,4.37-8.1,7.58-1.98,3.27-2.91,6.88-2.91,10.9s.93,7.7,2.91,10.9c1.98,3.27,4.66,5.77,8.1,7.58h0Z"/>
      <path class="cls-1" d="M304.42,22.57L286.41,.82h-9.5V6.24l11.31,13.65,18.01,21.75h9.5v-4.72l-11.31-14.4v.06Zm0-21.75v7.41l11.31,13.65V.82h-11.31Zm-27.51,40.82h11.31v-6.88l-11.31-14.4v21.28Z"/>
      <rect class="cls-1" x="332.02" y=".82" width="11.54" height="40.82"/>
      <path class="cls-1" d="M386.09,31.43c-1.69,.99-3.56,1.46-5.6,1.46s-3.96-.47-5.6-1.46c-1.69-.93-3.03-2.33-3.96-4.08-.99-1.75-1.46-3.79-1.46-6.12s.47-4.32,1.46-6.06c.93-1.75,2.27-3.15,3.96-4.14,1.63-.93,3.5-1.46,5.6-1.46s3.91,.52,5.6,1.46c1.63,.99,2.97,2.39,3.96,4.14,.93,1.75,1.46,3.79,1.46,6.06s-.52,4.37-1.46,6.12c-.99,1.75-2.33,3.15-3.96,4.08h0Zm-17.25,8.28c3.44,1.87,7.34,2.74,11.66,2.74s8.16-.87,11.6-2.74c3.44-1.81,6.12-4.32,8.1-7.58,1.98-3.21,2.97-6.82,2.97-10.9s-.99-7.64-2.97-10.9c-1.98-3.21-4.66-5.71-8.1-7.58-3.44-1.81-7.29-2.74-11.6-2.74s-8.22,.93-11.66,2.74c-3.44,1.87-6.12,4.37-8.1,7.58-1.98,3.27-2.91,6.88-2.91,10.9s.93,7.7,2.91,10.9c1.98,3.27,4.66,5.77,8.1,7.58h0Z"/>
      <path class="cls-1" d="M444.83,22.57L426.81,.82h-9.5V6.24l11.31,13.65,18.01,21.75h9.5v-4.72l-11.31-14.4v.06Zm0-21.75v7.41l11.31,13.65V.82h-11.31Zm-27.51,40.82h11.31v-6.88l-11.31-14.4v21.28Z"/>
      <path class="cls-2" d="M58.2,41.79c-6.05,0-12.09,0-18.14,0-1.8,0-2.05-.4-1.18-1.96,4-7.18,7.99-14.37,12.01-21.54,.39-.69,.44-1.28,.2-2.02-.48-1.42-.86-2.87-1.32-4.3-.18-.57-.17-1.05,.18-1.59,1.42-2.2,1.22-5.21-.45-7.24-.35-.43-.84-.79-.5-1.47,.32-.62,.88-.46,1.39-.47,.83-.02,1.66,.05,2.48-.02,.97-.07,1.4,.29,1.59,1.27,.31,1.61,1.67,2.77,3.27,3,1.51,.22,3.13-.58,3.91-1.92,.13-.23,.24-.47,.32-.72q.55-1.62,2.32-1.62c.68,0,1.35,0,2.03,0,.44,0,.94-.08,1.15,.47,.18,.47,.02,.88-.3,1.25-.87,.98-1.32,2.14-1.54,3.44-.24,1.45,.02,2.77,.83,3.96,.36,.52,.44,.98,.25,1.57-.48,1.5-.91,3.02-1.38,4.52-.21,.65-.15,1.19,.19,1.8,4,7.1,7.97,14.21,11.95,21.31,.11,.2,.23,.39,.33,.59,.6,1.17,.31,1.67-1.02,1.67-6.2,0-12.39,0-18.59,0Z"/>
    </g>
  </g>
</svg>